<?xml version="1.0" encoding="UTF-8" standalone="no"?>
<!DOCTYPE svg PUBLIC "-//W3C//DTD SVG 1.1//EN" "http://www.w3.org/Graphics/SVG/1.1/DTD/svg11.dtd">
<svg width="100%" height="100%" viewBox="0 0 461 346" version="1.1" xmlns="http://www.w3.org/2000/svg" xmlns:xlink="http://www.w3.org/1999/xlink" xml:space="preserve" xmlns:serif="http://www.serif.com/" style="fill-rule:evenodd;clip-rule:evenodd;stroke-linejoin:round;stroke-miterlimit:2;">
    <g transform="matrix(1.0017,0,0,-1.0017,-0.565449,347.836)">
        <circle cx="236.161" cy="172.851" r="96.993" style="fill:rgb(35,191,255);"/>
    </g>
    <g transform="matrix(1.0017,0,0,-1.0017,-0.565449,347.836)">
        <path d="M231.298,255.818L230.883,255.778L230.936,255.226L225.968,254.748L225.915,255.3L225.363,255.247L225.15,257.455L225.702,257.508L225.649,258.06L230.618,258.538L230.671,257.986L231.223,258.039L231.298,257.258L231.298,257.564C231.298,258.118 231.503,258.652 231.873,259.064L235.704,263.326C235.884,263.525 236.142,263.636 236.41,263.629C236.679,263.622 236.93,263.497 237.099,263.289L240.526,259.041C240.848,258.642 241.024,258.145 241.024,257.632L241.024,252.088C241.024,251.493 240.788,250.923 240.367,250.502C239.946,250.081 239.376,249.845 238.781,249.845L233.541,249.845C232.946,249.845 232.376,250.081 231.955,250.502C231.575,250.882 231.345,251.385 231.305,251.917L231.255,251.912L231.308,251.36L230.204,251.254L230.098,252.358L230.65,252.411L230.544,253.515L229.439,253.409L229.599,251.753L229.047,251.7L229.1,251.148L226.339,250.882L226.286,251.435L225.734,251.381L225.522,253.59L226.074,253.643L226.021,254.195L230.99,254.672L231.043,254.12L231.298,254.145L231.298,255.818ZM226.785,252.04L228.441,252.199L228.335,253.303L226.679,253.144L226.785,252.04ZM238.39,254.167L237.275,254.167L237.275,253.61L236.718,253.61L236.718,253.053L235.604,253.053L235.604,253.61L235.047,253.61L235.047,254.167L233.932,254.167L233.932,253.053L234.489,253.053L234.489,252.496L235.047,252.496L235.047,251.938L234.489,251.938L234.489,251.381L233.932,251.381L233.932,250.267L235.047,250.267L235.047,250.824L235.604,250.824L235.604,251.381L236.718,251.381L236.718,250.824L237.275,250.824L237.275,250.267L238.39,250.267L238.39,251.381L237.833,251.381L237.833,251.938L237.275,251.938L237.275,252.496L237.833,252.496L237.833,253.053L238.39,253.053L238.39,254.167ZM239.419,259.032L238.234,259.032L238.234,257.847L232.903,257.847L232.903,256.662L233.495,256.662L233.495,255.478L234.68,255.478L234.68,256.662L238.234,256.662L238.234,255.478L239.419,255.478L239.419,259.032ZM226.414,255.905L230.278,256.277L230.172,257.381L226.308,257.009L226.414,255.905ZM139.829,184.221L145.824,183.577L145.643,181.89L139.646,182.533C139.702,183.097 139.763,183.66 139.829,184.221ZM151.71,125.142L156.996,128.194L157.844,126.724L152.559,123.673C152.272,124.16 151.989,124.65 151.71,125.142ZM156.684,117.269L161.648,120.809L162.634,119.427L157.67,115.888C157.338,116.345 157.009,116.806 156.684,117.269ZM163.106,109.077L167.659,113.123L168.786,111.855L164.234,107.808C163.854,108.228 163.478,108.651 163.106,109.077ZM171.392,100.677L175.421,105.245L176.694,104.122L172.665,99.554C172.237,99.924 171.813,100.299 171.392,100.677ZM182.135,92.306L185.49,97.398L186.907,96.465L183.551,91.371C183.076,91.679 182.604,91.99 182.135,92.306ZM196.198,84.46L198.67,90.044L200.222,89.357L197.75,83.773C197.23,83.998 196.713,84.227 196.198,84.46ZM214.876,78.205L216.168,84.157L217.826,83.797L216.535,77.848C215.98,77.963 215.427,78.082 214.876,78.205ZM240.13,75.938L239.841,81.967L241.536,82.049L241.825,76.021C241.261,75.989 240.696,75.961 240.13,75.938ZM274.846,83.892L272.427,89.357L273.979,90.044L276.396,84.584C275.882,84.349 275.365,84.118 274.846,83.892ZM319.845,123.814L314.805,126.724L315.653,128.194L320.692,125.284C320.414,124.792 320.132,124.301 319.845,123.814ZM324.161,132.036L318.874,134.446L319.578,135.99L324.863,133.581C324.633,133.063 324.399,132.548 324.161,132.036ZM328.024,141.668L322.525,143.494L323.06,145.105L328.556,143.28C328.383,142.74 328.206,142.203 328.024,141.668ZM331.12,153.014L325.466,154.156L325.802,155.819L331.451,154.679C331.346,154.122 331.235,153.568 331.12,153.014ZM332.946,166.461L327.227,166.799L327.327,168.493L333.042,168.156C333.015,167.589 332.983,167.025 332.946,166.461ZM332.679,182.499L327.006,181.89L326.825,183.577L332.497,184.186C332.563,183.625 332.623,183.063 332.679,182.499ZM328.777,201.723L323.356,199.987L322.838,201.603L328.258,203.339C328.435,202.802 328.609,202.264 328.777,201.723ZM318.167,224.639L313.415,221.584L312.497,223.011L317.246,226.065C317.557,225.593 317.864,225.117 318.167,224.639ZM294.046,250.663L290.722,246.109L289.352,247.109L292.677,251.665C293.136,251.335 293.593,251.001 294.046,250.663ZM237.173,269.839L237.173,264.126L235.476,264.126L235.476,269.842C235.704,269.843 235.932,269.844 236.161,269.844C236.499,269.844 236.836,269.842 237.173,269.839ZM227.902,269.497L228.451,263.789L226.761,263.626L226.212,269.339C226.774,269.397 227.337,269.449 227.902,269.497ZM217.628,268.072L218.79,262.426L217.127,262.084L215.964,267.735C216.517,267.852 217.072,267.964 217.628,268.072ZM206.239,265.133L208.086,259.643L206.477,259.102L204.63,264.595C205.164,264.779 205.701,264.959 206.239,265.133ZM193.651,260.043L196.256,254.847L194.739,254.086L192.133,259.284C192.637,259.541 193.143,259.794 193.651,260.043ZM179.86,251.819L183.297,247.109L181.926,246.109L178.488,250.82C178.942,251.157 179.399,251.49 179.86,251.819ZM165.106,238.845L169.45,234.899L168.309,233.643L163.961,237.592C164.339,238.013 164.721,238.431 165.106,238.845ZM150.426,218.218L155.717,215.493L154.94,213.984L149.643,216.712C149.9,217.217 150.161,217.719 150.426,218.218ZM172.17,123.532L170.364,122.244L170.042,122.696L169.591,122.374L166.693,126.438L167.144,126.76L166.822,127.212L168.629,128.5L168.951,128.048L169.402,128.37L170.046,127.467L169.143,126.823L168.821,127.274L167.918,126.63L168.562,125.727L169.917,126.693L170.239,126.242L170.69,126.564L172.3,124.306L171.848,123.984L172.17,123.532ZM171.075,124.113L170.109,125.468L169.206,124.824L170.172,123.469L171.075,124.113ZM169.009,121.278L167.202,119.99L166.88,120.441L166.429,120.119L163.531,124.183L163.982,124.505L163.66,124.957L165.467,126.245L165.789,125.793L166.24,126.115L169.138,122.051L168.687,121.729L169.009,121.278ZM167.913,121.859L165.659,125.02L164.756,124.376L167.01,121.215L167.913,121.859ZM168.932,130.592L167.971,130.037L165.475,134.36L164.515,133.805L163.96,134.766L166.842,136.43L167.396,135.469L166.436,134.915L168.1,132.033L169.06,132.587L169.615,131.627L168.654,131.072L168.932,130.592ZM166.049,128.927L164.127,127.818L163.85,128.298L163.37,128.021L160.874,132.344L161.354,132.621L161.077,133.102L162.998,134.211L163.276,133.73L163.756,134.008L166.252,129.685L165.771,129.408L166.049,128.927ZM165.014,129.611L163.073,132.973L162.112,132.418L164.053,129.056L165.014,129.611ZM162.686,126.986L160.764,125.876L160.487,126.357L160.007,126.079L157.511,130.402L157.991,130.68L157.714,131.16L159.635,132.269L159.913,131.789L160.393,132.066L162.889,127.743L162.408,127.466L162.686,126.986ZM161.651,127.669L159.71,131.031L158.749,130.477L160.69,127.114L161.651,127.669ZM157.43,178.419L155.224,178.655L155.283,179.207L154.732,179.266L155.028,182.023L155.579,181.964L155.638,182.515L156.19,182.456L156.249,183.008L156.8,182.948L156.86,183.5L155.205,183.677L155.324,184.78L158.632,184.425L158.455,182.771L157.903,182.83L157.844,182.279L157.293,182.338L157.234,181.786L156.682,181.846L156.623,181.294L156.071,181.353L155.894,179.699L156.997,179.581L157.056,180.132L158.159,180.014L158.041,178.911L157.489,178.97L157.43,178.419ZM153.569,178.833L151.363,179.069L151.422,179.621L150.871,179.68L151.403,184.643L151.955,184.584L152.014,185.135L154.22,184.899L154.16,184.347L154.712,184.288L154.179,179.325L153.628,179.384L153.569,178.833ZM153.136,179.995L153.55,183.855L152.447,183.973L152.033,180.113L153.136,179.995ZM149.707,179.247L147.502,179.484L147.561,180.035L147.009,180.094L147.542,185.057L148.093,184.998L148.152,185.55L150.358,185.313L150.299,184.762L150.851,184.702L150.318,179.739L149.767,179.798L149.707,179.247ZM149.274,180.409L149.688,184.269L148.586,184.388L148.171,180.527L149.274,180.409ZM164.683,206.497L162.711,207.513L162.965,208.006L162.472,208.26L163.234,209.739L163.727,209.485L163.981,209.978L163.488,210.232L164.758,212.697L165.251,212.443L165.505,212.936L167.477,211.92L167.223,211.427L167.716,211.173L167.208,210.187L166.222,210.695L166.476,211.188L165.49,211.696L164.728,210.217L165.714,209.709L165.206,208.723L164.22,209.231L163.712,208.245L164.698,207.737L164.952,208.23L165.938,207.722L165.43,206.736L164.937,206.99L164.683,206.497ZM161.231,208.275L159.259,209.291L159.513,209.784L159.02,210.038L161.305,214.475L161.798,214.221L162.052,214.714L164.025,213.698L163.771,213.205L164.264,212.951L161.978,208.514L161.485,208.768L161.231,208.275ZM161.246,209.515L163.024,212.966L162.037,213.474L160.26,210.023L161.246,209.515ZM157.779,210.053L155.806,211.069L156.06,211.562L155.567,211.816L157.853,216.254L158.346,216L158.6,216.493L160.572,215.477L160.318,214.984L160.811,214.73L158.526,210.292L158.032,210.546L157.779,210.053ZM157.793,211.293L159.571,214.745L158.585,215.253L156.807,211.801L157.793,211.293ZM176.194,223.517L175.373,224.263L177.237,226.316L176.416,227.062L174.552,225.009L173.731,225.755L177.832,230.271L178.654,229.525L177.162,227.883L178.394,226.764L178.021,226.353L178.431,225.981L176.194,223.517ZM172.909,226.501L171.267,227.993L171.639,228.403L171.229,228.776L174.585,232.471L174.995,232.098L175.368,232.509L177.01,231.017L176.638,230.607L177.048,230.234L173.692,226.539L173.282,226.912L172.909,226.501ZM173.244,227.695L175.854,230.569L175.033,231.315L172.423,228.441L173.244,227.695ZM170.034,229.112L168.392,230.604L168.765,231.014L168.354,231.387L171.71,235.082L172.121,234.709L172.494,235.12L174.136,233.628L173.763,233.218L174.173,232.845L170.817,229.15L170.407,229.523L170.034,229.112ZM170.369,230.306L172.979,233.18L172.158,233.926L169.548,231.052L170.369,230.306ZM187.608,234.601L185.647,237.289L186.543,237.943L187.851,236.151L188.747,236.805L187.766,238.149L188.214,238.476L187.887,238.924L190.127,240.559L190.454,240.111L190.902,240.438L192.536,238.198L191.64,237.544L190.333,239.336L188.989,238.355L190.296,236.563L187.608,234.601ZM184.992,238.186L183.684,239.978L184.132,240.305L183.805,240.753L187.837,243.696L188.164,243.248L188.612,243.575L189.92,241.783L189.472,241.456L189.799,241.008L185.767,238.065L185.44,238.513L184.992,238.186ZM185.561,239.288L188.697,241.577L188.043,242.473L184.907,240.184L185.561,239.288ZM182.703,241.323L181.395,243.115L181.843,243.442L181.516,243.89L185.548,246.833L185.875,246.385L186.323,246.712L187.631,244.92L187.183,244.593L187.51,244.145L183.478,241.202L183.151,241.65L182.703,241.323ZM183.272,242.425L186.408,244.714L185.754,245.61L182.618,243.321L183.272,242.425ZM198.195,242.294L197.201,244.277L197.697,244.526L197.448,245.022L198.44,245.519L198.937,244.527L198.441,244.279L198.938,243.287L199.93,243.784L199.184,245.272L199.68,245.52L199.431,246.016L201.911,247.259L202.159,246.763L202.655,247.011L203.649,245.028L203.153,244.779L203.402,244.284L198.939,242.047L198.691,242.543L198.195,242.294ZM200.921,244.281L202.409,245.027L201.912,246.018L200.424,245.273L200.921,244.281ZM196.455,245.766L195.461,247.749L195.957,247.998L195.708,248.494L200.17,250.73L200.419,250.234L200.915,250.483L201.909,248.5L201.413,248.251L201.661,247.755L197.199,245.519L196.951,246.014L196.455,245.766ZM197.198,246.759L200.669,248.498L200.172,249.49L196.701,247.75L197.198,246.759ZM194.715,249.238L193.721,251.221L194.216,251.469L193.968,251.965L198.43,254.202L198.679,253.706L199.175,253.955L200.169,251.971L199.673,251.723L199.921,251.227L195.459,248.99L195.21,249.486L194.715,249.238ZM195.458,250.23L198.928,251.97L198.431,252.962L194.961,251.222L195.458,250.23ZM208.428,246.417L207.367,249.571L209.996,250.455L210.173,249.93L211.224,250.283L211.401,249.758L213.503,250.465L213.857,249.413L211.229,248.529L211.052,249.055L210,248.702L209.824,249.227L208.772,248.874L209.479,246.771L208.428,246.417ZM207.013,250.624L206.306,252.727L206.832,252.903L206.655,253.429L211.386,255.02L211.563,254.495L212.089,254.671L212.796,252.569L212.27,252.392L212.447,251.866L207.716,250.275L207.539,250.801L207.013,250.624ZM207.888,251.503L211.568,252.741L211.214,253.792L207.534,252.555L207.888,251.503ZM205.775,254.305L205.068,256.407L205.594,256.584L205.417,257.11L210.148,258.701L210.325,258.175L210.851,258.352L211.558,256.249L211.032,256.073L211.209,255.547L206.478,253.956L206.301,254.482L205.775,254.305ZM206.65,255.184L210.33,256.422L209.976,257.473L206.296,256.235L206.65,255.184ZM217.415,249.8L216.968,251.973L217.511,252.084L217.399,252.628L219.029,252.963L219.141,252.42L219.684,252.532L219.572,253.075L222.289,253.634L222.4,253.091L222.944,253.202L223.391,251.03L222.848,250.918L222.959,250.375L220.243,249.816L220.131,250.359L219.588,250.247L219.7,249.704L218.07,249.368L217.958,249.912L217.415,249.8ZM218.39,250.567L219.476,250.79L219.253,251.877L218.166,251.653L218.39,250.567ZM220.563,251.014L222.192,251.349L221.969,252.436L220.339,252.1L220.563,251.014ZM216.632,253.603L216.185,255.776L216.728,255.888L216.617,256.431L221.506,257.438L221.618,256.894L222.161,257.006L222.608,254.833L222.065,254.721L222.177,254.178L217.287,253.172L217.176,253.715L216.632,253.603ZM217.607,254.37L221.41,255.153L221.186,256.239L217.383,255.457L217.607,254.37ZM215.85,257.407L215.402,259.58L215.946,259.692L215.834,260.235L220.723,261.241L220.835,260.698L221.378,260.81L221.825,258.637L221.282,258.525L221.394,257.982L216.505,256.976L216.393,257.519L215.85,257.407ZM216.824,258.174L220.627,258.957L220.403,260.043L216.601,259.26L216.824,258.174ZM224.991,259.113L224.779,261.321L225.331,261.374L225.278,261.926L230.246,262.404L230.299,261.852L230.851,261.905L231.064,259.696L230.512,259.643L230.565,259.091L225.596,258.614L225.543,259.166L224.991,259.113ZM226.042,259.771L229.907,260.142L229.8,261.246L225.936,260.875L226.042,259.771ZM262.572,249.369L262.972,250.404L267.628,248.604L268.028,249.639L269.063,249.239L267.863,246.135L266.828,246.535L267.228,247.57L264.124,248.769L263.724,247.735L262.69,248.134L263.09,249.169L262.572,249.369ZM268.229,250.158L268.629,251.193L269.663,250.793L269.263,249.758L268.229,250.158ZM264.173,253.512L265.373,256.616L266.408,256.216L265.608,254.147L266.643,253.747L267.242,255.299L267.76,255.099L267.96,255.616L270.546,254.616L270.346,254.099L270.864,253.899L269.864,251.312L268.829,251.712L269.629,253.782L268.077,254.381L267.277,252.312L264.173,253.512ZM293.594,229.14L295.236,230.631L295.609,230.221L296.019,230.593L297.884,228.541L297.473,228.168L297.846,227.757L297.435,227.384L297.808,226.974L297.398,226.601L297.771,226.19L299.002,227.309L299.748,226.488L297.285,224.251L296.166,225.482L296.577,225.855L296.204,226.266L296.614,226.639L296.241,227.049L296.652,227.422L296.279,227.833L296.69,228.205L295.571,229.437L294.75,228.691L295.123,228.281L294.302,227.535L293.556,228.356L293.966,228.729L293.594,229.14ZM299.414,227.683L300.236,228.429L300.981,227.608L300.16,226.862L299.414,227.683ZM297.292,232.499L299.755,234.736L300.501,233.915L298.859,232.423L299.604,231.602L300.836,232.721L301.209,232.31L301.62,232.683L303.484,230.63L303.073,230.257L303.446,229.847L301.394,227.982L300.648,228.804L302.29,230.295L301.171,231.527L299.529,230.035L297.292,232.499ZM289.849,111.456L290.545,110.593L286.659,107.46L287.355,106.596L286.491,105.9L284.403,108.491L285.267,109.187L285.963,108.324L288.554,110.412L287.857,111.276L288.721,111.972L289.417,111.108L289.849,111.456ZM291.59,109.296L293.678,106.705L292.815,106.009L291.422,107.736L290.559,107.04L291.603,105.745L291.171,105.397L291.519,104.965L289.36,103.225L289.012,103.657L288.58,103.309L286.84,105.468L287.704,106.164L289.096,104.437L290.391,105.481L288.999,107.208L291.59,109.296ZM256.473,94.54L256.943,92.372L256.401,92.254L256.519,91.712L253.809,91.124L253.691,91.666L253.149,91.548L253.032,92.09L252.49,91.973L252.372,92.515L251.83,92.397L252.183,90.771L251.099,90.536L250.393,93.788L252.019,94.141L252.137,93.599L252.679,93.716L252.796,93.174L253.338,93.292L253.456,92.75L253.998,92.868L254.116,92.326L255.741,92.679L255.506,93.763L254.964,93.645L254.729,94.729L255.813,94.964L255.931,94.422L256.473,94.54ZM257.179,91.287L257.885,88.035L256.801,87.8L256.33,89.968L255.246,89.732L255.599,88.106L255.057,87.989L255.175,87.447L252.465,86.858L252.347,87.4L251.805,87.283L251.217,89.993L252.301,90.228L252.771,88.06L254.397,88.413L253.927,90.581L257.179,91.287ZM158.17,157.739L157.074,157.568L156.304,162.5L155.208,162.329L155.037,163.425L158.325,163.938L158.496,162.842L157.4,162.671L157.913,159.383L159.009,159.554L159.18,158.458L158.084,158.287L158.17,157.739ZM155.429,157.312L152.141,156.799L151.97,157.895L154.162,158.237L153.991,159.333L152.347,159.076L152.261,159.624L151.713,159.539L151.286,162.279L151.834,162.364L151.748,162.912L154.488,163.34L154.659,162.244L152.467,161.902L152.724,160.258L154.916,160.6L155.429,157.312ZM151.044,156.628L148.852,156.285L148.766,156.833L148.218,156.748L147.449,161.68L147.997,161.765L147.911,162.313L150.103,162.655L150.189,162.107L150.737,162.193L151.506,157.261L150.958,157.175L151.044,156.628ZM150.325,157.638L149.726,161.474L148.63,161.303L149.229,157.467L150.325,157.638ZM160.139,194.211L158.026,194.887L158.195,195.416L157.667,195.585L158.512,198.226L159.041,198.057L159.21,198.585L159.738,198.416L159.907,198.944L160.435,198.775L160.604,199.303L159.02,199.81L159.358,200.867L162.527,199.852L162.02,198.267L161.492,198.437L161.323,197.908L160.794,198.077L160.625,197.549L160.097,197.718L159.928,197.19L159.4,197.359L158.892,195.775L159.949,195.436L160.118,195.965L161.174,195.626L160.836,194.57L160.308,194.739L160.139,194.211ZM156.969,195.226L153.799,196.241L154.137,197.297L156.25,196.62L156.589,197.677L155.004,198.184L155.173,198.712L154.645,198.882L155.49,201.523L156.019,201.353L156.188,201.882L158.829,201.036L158.49,199.98L156.378,200.656L155.87,199.072L157.983,198.395L156.969,195.226ZM152.742,196.579L150.629,197.256L150.798,197.784L150.27,197.953L151.792,202.707L152.32,202.538L152.489,203.066L154.602,202.389L154.433,201.861L154.961,201.692L153.439,196.938L152.911,197.107L152.742,196.579ZM152.552,197.805L153.736,201.502L152.679,201.84L151.495,198.143L152.552,197.805ZM271.226,261.936L269.761,258.145L268.83,258.505L270.295,262.295L271.226,261.936ZM307.372,236.869L304.364,234.137L303.692,234.876L306.701,237.608L307.372,236.869ZM323.309,212.495L319.618,210.797L319.2,211.703L322.892,213.402L323.309,212.495ZM329.993,191.757L326.013,190.939L325.812,191.917L329.792,192.735L329.993,191.757ZM294.934,99.503L293.331,101.492L294.108,102.118L296.658,98.954L295.881,98.328L294.934,99.503ZM256.1,79.559L255.238,83.53L256.214,83.741L257.076,79.77L256.1,79.559ZM228.064,78.36L228.017,77.851L227.023,77.943L227.162,79.446L227.398,81.989L228.392,81.897L228.064,78.36ZM207.951,86.065L206.669,82.209L205.722,82.524L207.003,86.38L207.951,86.065ZM146.034,158.42L142.019,157.794L141.865,158.78L143.357,159.013L145.88,159.407L146.034,158.42ZM149.067,200.426L145.197,201.665L145.501,202.616L146.939,202.156L149.371,201.377L149.067,200.426ZM161.381,225.443L158.064,227.79L158.641,228.605L161.957,226.258L161.381,225.443ZM175.211,241.062L172.512,244.1L173.259,244.763L175.957,241.725L175.211,241.062ZM331.308,175.431L331.328,174.433L327.776,174.361L327.756,175.36L331.308,175.431ZM330.58,161.026L330.448,160.036L326.926,160.503L327.058,161.493L330.58,161.026ZM328.226,148.894L327.968,147.929L324.536,148.849L324.795,149.814L328.226,148.894ZM324.891,138.61L324.525,137.681L321.22,138.985L321.586,139.914L324.891,138.61ZM320.963,129.841L320.505,128.954L317.349,130.585L317.807,131.472L320.963,129.841ZM190.925,89.548L190.051,90.029L191.765,93.141L192.639,92.66L190.925,89.548ZM178.814,97.381L178.023,97.99L180.188,100.807L180.98,100.198L178.814,97.381ZM169.484,105.486L168.778,106.192L171.291,108.704L171.997,107.998L169.484,105.486ZM162.246,113.516L161.624,114.298L164.406,116.508L165.027,115.726L162.246,113.516ZM156.615,121.302L156.076,122.142L159.067,124.06L159.606,123.22L156.615,121.302ZM186.74,254.065L187.594,254.581L189.432,251.541L188.578,251.024L186.74,254.065ZM199.579,260.636L200.502,261.017L201.858,257.734L200.936,257.353L199.579,260.636ZM211.263,264.664L212.227,264.923L213.146,261.491L212.182,261.232L211.263,264.664ZM221.836,266.918L222.824,267.065L223.347,263.551L222.36,263.404L221.836,266.918ZM231.394,267.901L232.392,267.948L232.557,264.399L231.56,264.352L231.394,267.901ZM244.962,266.633L243.967,266.72L244.098,268.223L245.092,268.137L244.962,266.633ZM252.336,265.657L251.352,265.822L251.601,267.31L252.586,267.146L252.336,265.657ZM259.033,264.247L258.063,264.483L258.42,265.949L259.39,265.713L259.033,264.247ZM265.126,262.51L264.175,262.811L264.629,264.25L265.581,263.949L265.126,262.51ZM275.758,258.361L274.849,258.775L275.475,260.149L276.383,259.735L275.758,258.361ZM280.402,256.058L279.517,256.522L280.218,257.858L281.102,257.395L280.402,256.058ZM284.657,253.655L283.798,254.164L284.567,255.463L285.426,254.954L284.657,253.655ZM288.563,251.182L287.73,251.732L288.562,252.991L289.395,252.441L288.563,251.182ZM295.453,246.109L294.674,246.733L295.617,247.911L296.396,247.288L295.453,246.109ZM298.492,243.543L297.74,244.199L298.732,245.336L299.484,244.68L298.492,243.543ZM301.292,240.972L300.567,241.658L301.604,242.755L302.329,242.069L301.292,240.972ZM303.874,238.407L303.175,239.12L304.254,240.176L304.952,239.462L303.874,238.407ZM308.451,233.32L307.807,234.082L308.96,235.057L309.604,234.294L308.451,233.32ZM310.479,230.809L309.861,231.593L311.046,232.527L311.664,231.743L310.479,230.809ZM312.35,228.325L311.758,229.129L312.974,230.023L313.565,229.219L312.35,228.325ZM314.076,225.87L313.51,226.693L314.754,227.548L315.319,226.725L314.076,225.87ZM317.137,221.06L316.623,221.915L317.916,222.693L318.43,221.838L317.137,221.06ZM318.491,218.706L318.001,219.576L319.316,220.316L319.806,219.447L318.491,218.706ZM319.737,216.389L319.272,217.272L320.607,217.975L321.073,217.092L319.737,216.389ZM320.884,214.108L320.443,215.004L321.797,215.67L322.238,214.775L320.884,214.108ZM322.905,209.658L322.511,210.575L323.898,211.171L324.292,210.254L322.905,209.658ZM323.792,207.489L323.421,208.416L324.822,208.977L325.193,208.05L323.792,207.489ZM324.602,205.358L324.254,206.293L325.668,206.82L326.016,205.884L324.602,205.358ZM325.342,203.263L325.015,204.207L326.442,204.7L326.768,203.756L325.342,203.263ZM326.625,199.184L326.342,200.141L327.789,200.569L328.072,199.612L326.625,199.184ZM327.177,197.199L326.915,198.162L328.371,198.558L328.633,197.594L327.177,197.199ZM327.674,195.249L327.432,196.217L328.897,196.582L329.138,195.613L327.674,195.249ZM328.119,193.334L327.898,194.307L329.369,194.641L329.59,193.668L328.119,193.334ZM328.865,189.607L328.683,190.588L330.168,190.863L330.349,189.881L328.865,189.607ZM329.172,187.793L329.01,188.778L330.499,189.024L330.661,188.038L329.172,187.793ZM329.438,186.013L329.294,187.001L330.788,187.217L330.931,186.229L329.438,186.013ZM329.665,184.264L329.54,185.255L331.038,185.443L331.162,184.453L329.665,184.264ZM313.082,118.725L313.654,119.543L314.891,118.678L314.318,117.86L313.082,118.725ZM308.549,112.826L309.184,113.597L310.349,112.637L309.714,111.866L308.549,112.826ZM303.98,107.732L304.669,108.454L305.761,107.412L305.071,106.69L303.98,107.732ZM299.429,103.323L300.165,103.997L301.184,102.884L300.448,102.21L299.429,103.323ZM290.52,96.191L291.333,96.771L292.209,95.542L291.397,94.962L290.52,96.191ZM286.204,93.321L287.047,93.855L287.855,92.58L287.011,92.046L286.204,93.321ZM281.995,90.836L282.865,91.326L283.605,90.011L282.735,89.521L281.995,90.836ZM277.9,88.691L278.793,89.137L279.467,87.787L278.574,87.341L277.9,88.691ZM270.062,85.26L270.992,85.623L271.541,84.218L270.611,83.854L270.062,85.26ZM266.32,83.912L267.264,84.235L267.753,82.807L266.809,82.484L266.32,83.912ZM262.693,82.772L263.65,83.057L264.081,81.611L263.124,81.326L262.693,82.772ZM259.181,81.819L260.148,82.067L260.523,80.605L259.556,80.357L259.181,81.819ZM252.487,80.398L253.469,80.575L253.737,79.09L252.754,78.913L252.487,80.398ZM249.299,79.898L250.287,80.041L250.503,78.547L249.515,78.404L249.299,79.898ZM246.212,79.52L247.204,79.63L247.371,78.13L246.379,78.02L246.212,79.52ZM243.223,79.252L244.218,79.33L244.337,77.826L243.342,77.747L243.223,79.252ZM237.526,79.006L238.524,79.024L238.552,77.515L237.553,77.497L237.526,79.006ZM234.811,79.011L235.809,79L235.793,77.491L234.795,77.501L234.811,79.011ZM232.181,79.09L233.179,79.051L233.12,77.543L232.123,77.582L232.181,79.09ZM229.632,79.237L230.629,79.171L230.529,77.665L229.533,77.731L229.632,79.237ZM224.768,79.711L225.759,79.594L225.582,78.095L224.591,78.213L224.768,79.711ZM222.447,80.028L223.435,79.886L223.22,78.392L222.232,78.534L222.447,80.028ZM220.195,80.392L221.18,80.226L220.929,78.738L219.944,78.904L220.195,80.392ZM218.012,80.799L218.992,80.61L218.706,79.128L217.726,79.317L218.012,80.799ZM213.837,81.727L214.808,81.494L214.455,80.026L213.484,80.26L213.837,81.727ZM211.842,82.242L212.807,81.987L212.422,80.528L211.457,80.783L211.842,82.242ZM209.905,82.787L210.865,82.511L210.448,81.061L209.489,81.336L209.905,82.787ZM208.024,83.359L208.978,83.063L208.531,81.622L207.578,81.917L208.024,83.359ZM204.423,84.576L205.364,84.242L204.86,82.82L203.919,83.154L204.423,84.576ZM202.699,85.217L203.634,84.865L203.101,83.453L202.167,83.805L202.699,85.217ZM201.024,85.877L201.952,85.507L201.392,84.105L200.465,84.475L201.024,85.877ZM199.396,86.554L200.317,86.167L199.731,84.776L198.811,85.163L199.396,86.554ZM150.93,133.686L151.352,132.781L149.985,132.142L149.562,133.047L150.93,133.686ZM148.087,140.56L148.437,139.625L147.023,139.096L146.674,140.032L148.087,140.56ZM145.96,147.065L146.241,146.106L144.793,145.682L144.512,146.64L145.96,147.065ZM144.418,153.21L144.633,152.235L143.16,151.91L142.944,152.884L144.418,153.21ZM142.695,164.491L142.791,163.498L141.289,163.353L141.193,164.347L142.695,164.491ZM142.368,169.665L142.409,168.667L140.901,168.605L140.86,169.603L142.368,169.665ZM142.321,174.552L142.31,173.554L140.801,173.57L140.812,174.568L142.321,174.552ZM142.51,179.171L142.45,178.175L140.943,178.265L141.003,179.262L142.51,179.171ZM143.458,187.674L143.308,186.687L141.816,186.915L141.966,187.902L143.458,187.674ZM144.161,191.589L143.969,190.61L142.488,190.9L142.68,191.88L144.161,191.589ZM144.987,195.3L144.756,194.328L143.288,194.678L143.519,195.65L144.987,195.3ZM145.918,198.818L145.649,197.856L144.196,198.263L144.465,199.224L145.918,198.818ZM148.035,205.326L147.697,204.386L146.277,204.898L146.615,205.837L148.035,205.326ZM149.196,208.337L148.826,207.41L147.424,207.969L147.794,208.896L149.196,208.337ZM150.412,211.199L150.011,210.285L148.629,210.89L149.029,211.805L150.412,211.199ZM151.674,213.921L151.244,213.02L149.882,213.67L150.312,214.571L151.674,213.921ZM154.31,218.978L153.826,218.105L152.506,218.835L152.989,219.709L154.31,218.978ZM155.671,221.327L155.163,220.468L153.864,221.237L154.372,222.096L155.671,221.327ZM157.055,223.565L156.522,222.721L155.246,223.525L155.778,224.37L157.055,223.565ZM158.456,225.699L157.901,224.869L156.647,225.708L157.202,226.538L158.456,225.699ZM161.299,229.674L160.702,228.874L159.493,229.777L160.09,230.577L161.299,229.674ZM162.735,231.526L162.117,230.741L160.931,231.674L161.548,232.459L162.735,231.526ZM164.175,233.294L163.539,232.524L162.376,233.486L163.012,234.255L164.175,233.294ZM165.62,234.981L164.966,234.227L163.825,235.216L164.479,235.97L165.62,234.981ZM168.511,238.133L167.823,237.409L166.729,238.448L167.417,239.172L168.511,238.133ZM169.954,239.603L169.251,238.895L168.18,239.958L168.883,240.666L169.954,239.603ZM171.394,241.008L170.676,240.315L169.628,241.401L170.346,242.094L171.394,241.008ZM172.83,242.351L172.098,241.673L171.073,242.781L171.805,243.459L172.83,242.351ZM175.685,244.861L174.925,244.213L173.946,245.361L174.705,246.009L175.685,244.861ZM177.102,246.033L176.33,245.4L175.373,246.567L176.145,247.2L177.102,246.033ZM178.511,247.154L177.727,246.536L176.793,247.721L177.577,248.339L178.511,247.154ZM179.911,248.225L179.116,247.622L178.204,248.824L179,249.428L179.911,248.225ZM282.741,241.774L284.049,243.566L284.497,243.239L284.824,243.687L287.064,242.053L286.737,241.605L287.185,241.278L286.858,240.83L287.306,240.503L286.979,240.055L287.427,239.728L288.408,241.072L289.304,240.418L287.342,237.73L285.998,238.711L286.325,239.159L285.877,239.486L286.204,239.934L285.756,240.261L286.083,240.709L285.635,241.036L285.962,241.484L284.618,242.464L283.964,241.568L284.412,241.242L283.758,240.346L282.862,240.999L283.189,241.447L282.741,241.774ZM304.408,220.418L306.274,221.618L306.574,221.151L307.04,221.451L307.94,220.052L307.474,219.752L307.774,219.285L308.24,219.585L309.74,217.253L309.274,216.953L309.574,216.486L307.708,215.286L307.408,215.753L306.942,215.453L306.342,216.386L307.275,216.986L307.575,216.519L308.507,217.119L307.608,218.519L306.675,217.919L306.075,218.852L307.008,219.452L306.408,220.385L305.475,219.785L305.775,219.318L304.842,218.718L304.242,219.651L304.708,219.951L304.408,220.418ZM313.825,201.022L314.882,201.36L315.727,198.719L316.784,199.057L315.938,201.698L316.994,202.037L318.855,196.226L317.798,195.888L317.122,198.001L315.537,197.494L315.368,198.022L314.84,197.853L313.825,201.022ZM317.88,184.825L321.189,185.18L321.307,184.077L319.101,183.84L319.22,182.737L320.874,182.915L320.933,182.363L321.484,182.422L321.78,179.665L321.229,179.606L321.288,179.054L318.531,178.759L318.412,179.862L320.618,180.098L320.441,181.753L318.235,181.516L317.88,184.825ZM319.264,171.167L321.479,171.036L321.446,170.482L322,170.45L321.934,169.343L320.827,169.408L320.86,169.962L319.753,170.027L319.687,168.92L321.348,168.822L321.315,168.268L321.869,168.235L321.706,165.467L321.152,165.5L321.119,164.946L318.905,165.077L318.937,165.63L318.384,165.663L318.678,170.646L319.232,170.613L319.264,171.167ZM319.622,167.812L319.524,166.151L320.631,166.086L320.729,167.747L319.622,167.812ZM317.648,159.704L320.91,159.045L320.362,156.327L319.818,156.437L319.599,155.349L319.055,155.459L318.616,153.284L317.529,153.504L318.077,156.222L318.621,156.112L318.84,157.2L319.384,157.09L319.604,158.177L317.429,158.616L317.648,159.704ZM315.963,149.774L318.068,149.074L317.894,148.548L318.42,148.373L317.896,146.794L317.369,146.969L317.194,146.443L317.721,146.268L316.847,143.636L316.32,143.811L316.146,143.285L314.04,143.984L314.215,144.51L313.689,144.685L314.563,147.317L315.089,147.142L315.264,147.668L314.737,147.843L315.262,149.422L315.788,149.247L315.963,149.774ZM315.441,146.441L314.916,144.862L315.969,144.512L316.493,146.091L315.441,146.441ZM316.14,148.546L315.79,147.493L316.843,147.144L317.192,148.197L316.14,148.546ZM313.021,141.391L315.04,140.471L314.81,139.966L315.314,139.736L313.244,135.194L312.739,135.424L312.509,134.92L310.49,135.84L310.72,136.345L310.216,136.575L310.676,137.584L311.685,137.124L311.455,136.619L312.464,136.159L312.925,137.168L311.411,137.859L311.641,138.363L311.136,138.593L312.287,141.117L312.791,140.887L313.021,141.391ZM313.066,140.152L312.375,138.638L313.385,138.178L314.075,139.692L313.066,140.152ZM308.442,134.891L309.402,134.336L306.907,130.014L307.867,129.459L307.313,128.498L304.431,130.162L304.985,131.123L305.946,130.568L307.61,133.45L306.649,134.005L307.204,134.965L308.164,134.411L308.442,134.891ZM311.325,133.227L313.246,132.117L312.969,131.637L313.449,131.36L310.953,127.037L310.473,127.314L310.195,126.834L308.274,127.943L308.552,128.424L308.071,128.701L310.567,133.024L311.047,132.746L311.325,133.227ZM311.25,131.989L309.309,128.627L310.27,128.072L312.211,131.434L311.25,131.989ZM271.878,100.212L272.776,98.184L272.268,97.959L272.493,97.452L269.957,96.33L269.733,96.837L269.226,96.612L269.001,97.119L268.494,96.895L268.269,97.402L267.762,97.178L268.436,95.656L267.421,95.207L266.074,98.25L267.596,98.923L267.82,98.416L268.328,98.641L268.552,98.134L269.059,98.358L269.284,97.851L269.791,98.075L270.015,97.568L271.537,98.242L271.088,99.256L270.581,99.032L270.132,100.046L271.146,100.495L271.37,99.988L271.878,100.212ZM273.449,96.661L274.347,94.633L273.84,94.408L274.065,93.901L269.5,91.881L269.276,92.388L268.769,92.163L267.871,94.192L268.378,94.416L268.153,94.923L272.718,96.944L272.942,96.437L273.449,96.661ZM272.66,95.705L269.11,94.134L269.559,93.119L273.109,94.691L272.66,95.705ZM243.242,92.291L243.348,90.075L242.794,90.048L242.821,89.494L241.159,89.414L241.132,89.968L240.578,89.942L240.605,89.388L237.835,89.255L237.808,89.809L237.254,89.782L237.148,91.998L237.702,92.025L237.675,92.579L238.783,92.632L238.836,91.524L238.282,91.497L238.336,90.39L239.998,90.469L239.944,91.577L241.052,91.63L241.105,90.522L242.213,90.575L242.16,91.683L241.606,91.657L241.553,92.765L242.661,92.818L242.688,92.264L243.242,92.291ZM243.428,88.412L243.534,86.196L242.98,86.169L243.007,85.615L238.021,85.376L237.994,85.93L237.44,85.903L237.334,88.119L237.888,88.146L237.861,88.7L242.847,88.939L242.874,88.385L243.428,88.412ZM242.346,87.804L238.468,87.619L238.522,86.511L242.399,86.697L242.346,87.804ZM222.241,93.791L222.006,92.707L219.296,93.295L219.06,92.211L221.77,91.623L221.535,90.539L215.573,91.833L215.808,92.917L217.976,92.447L218.329,94.073L218.871,93.955L218.989,94.497L222.241,93.791ZM221.3,89.454L220.829,87.286L220.287,87.404L220.169,86.862L215.291,87.921L215.409,88.462L214.867,88.58L215.338,90.748L215.88,90.63L215.997,91.172L220.875,90.114L220.758,89.572L221.3,89.454ZM220.098,89.147L216.304,89.971L216.069,88.887L219.863,88.063L220.098,89.147ZM206.56,98.256L205.213,95.213L204.199,95.662L205.097,97.691L204.083,98.14L203.409,96.618L202.902,96.843L202.678,96.336L200.142,97.458L200.366,97.965L199.859,98.19L200.982,100.725L201.996,100.277L201.098,98.248L202.62,97.574L203.517,99.603L206.56,98.256ZM204.764,94.198L203.866,92.169L203.359,92.394L203.134,91.887L198.57,93.907L198.795,94.414L198.287,94.639L199.185,96.667L199.693,96.443L199.917,96.95L204.481,94.93L204.257,94.422L204.764,94.198ZM203.525,94.14L199.975,95.711L199.526,94.697L203.076,93.125L203.525,94.14ZM194.323,103.732L193.102,101.879L192.639,102.185L192.334,101.721L191.408,102.332L192.018,103.258L192.481,102.953L193.091,103.879L192.165,104.489L191.25,103.1L190.786,103.405L190.481,102.942L188.166,104.468L188.471,104.931L188.008,105.236L189.228,107.088L189.691,106.783L189.996,107.246L194.165,104.5L193.86,104.037L194.323,103.732ZM191.239,105.1L189.849,106.015L189.239,105.089L190.628,104.173L191.239,105.1ZM192.186,100.489L190.966,98.637L190.503,98.942L190.197,98.479L186.029,101.225L186.334,101.688L185.871,101.993L187.092,103.846L187.555,103.54L187.86,104.004L192.028,101.257L191.723,100.794L192.186,100.489ZM190.955,100.636L187.713,102.772L187.103,101.846L190.344,99.71L190.955,100.636ZM185.419,110.698L183.218,108.202L181.138,110.036L181.505,110.452L180.673,111.186L181.04,111.602L179.376,113.069L180.11,113.901L182.19,112.067L181.823,111.651L182.655,110.917L182.288,110.501L183.12,109.768L184.587,111.431L185.419,110.698ZM182.484,107.369L181.016,105.706L180.6,106.072L180.233,105.656L176.49,108.958L176.857,109.374L176.441,109.741L177.908,111.405L178.324,111.038L178.691,111.454L182.435,108.152L182.068,107.736L182.484,107.369ZM181.285,107.687L178.373,110.255L177.639,109.423L180.551,106.855L181.285,107.687ZM177.829,116.956L176.171,115.482L175.803,115.897L175.388,115.528L174.283,116.772L174.697,117.141L174.329,117.555L173.914,117.187L172.072,119.259L172.487,119.628L172.118,120.042L173.777,121.516L174.145,121.102L174.56,121.47L176.402,119.397L175.987,119.029L176.356,118.614L176.77,118.983L177.875,117.739L177.461,117.371L177.829,116.956ZM175.204,119.075L174.099,120.319L173.27,119.582L174.375,118.338L175.204,119.075ZM176.678,117.417L175.941,118.246L175.112,117.509L175.849,116.68L176.678,117.417ZM174.927,114.376L173.268,112.903L172.9,113.317L172.485,112.949L169.17,116.68L169.584,117.048L169.216,117.463L170.874,118.936L171.242,118.522L171.657,118.89L174.973,115.159L174.558,114.791L174.927,114.376ZM173.775,114.837L171.196,117.739L170.367,117.002L172.946,114.1L173.775,114.837Z" style="fill:white;"/>
    </g>
    <g transform="matrix(0.778538,1.83537e-34,1.83537e-34,-0.778538,52.1361,309.263)">
        <circle cx="236.161" cy="172.851" r="96.993" style="fill:rgb(208,208,208);"/>
    </g>
</svg>
