<?xml version="1.0" encoding="UTF-8" standalone="no"?>
<!DOCTYPE svg PUBLIC "-//W3C//DTD SVG 1.1//EN" "http://www.w3.org/Graphics/SVG/1.1/DTD/svg11.dtd">
<svg width="100%" height="100%" viewBox="0 0 461 346" version="1.1" xmlns="http://www.w3.org/2000/svg" xmlns:xlink="http://www.w3.org/1999/xlink" xml:space="preserve" xmlns:serif="http://www.serif.com/" style="fill-rule:evenodd;clip-rule:evenodd;stroke-linejoin:round;stroke-miterlimit:2;">
    <g transform="matrix(1.22912,0,0,-1.22912,-54.2742,387.147)">
        <circle cx="236.161" cy="172.851" r="96.993" style="fill:rgb(255,132,132);"/>
    </g>
    <g transform="matrix(1.0017,0,0,-1.0017,-0.565449,347.836)">
        <path d="M236.161,75.858C182.629,75.858 139.168,119.319 139.168,172.851C139.168,226.383 182.629,269.844 236.161,269.844C289.693,269.844 333.154,226.383 333.154,172.851C333.154,119.319 289.693,75.858 236.161,75.858ZM236.161,97.466C277.767,97.466 311.546,131.245 311.546,172.851C311.546,214.457 277.767,248.236 236.161,248.236C194.555,248.236 160.776,214.457 160.776,172.851C160.776,131.245 194.555,97.466 236.161,97.466Z" style="fill:rgb(35,191,255);"/>
    </g>
    <g transform="matrix(0.778538,1.83537e-34,1.83537e-34,-0.778538,52.1361,309.263)">
        <circle cx="236.161" cy="172.851" r="96.993" style="fill:rgb(208,208,208);"/>
    </g>
    <path id="Plot" d="M139.318,164.993L133.457,164.364L133.639,162.674L139.5,163.303C139.435,163.865 139.374,164.428 139.318,164.993ZM149.332,130.756L144.027,128.023L144.806,126.512L150.115,129.247C149.85,129.748 149.589,130.25 149.332,130.756ZM163.674,109.841L159.194,105.772L160.337,104.514L164.82,108.586C164.435,109.001 164.053,109.419 163.674,109.841ZM178.225,96.59L174.634,91.669L176.007,90.667L179.6,95.59C179.138,95.919 178.68,96.253 178.225,96.59ZM191.894,88.112L189.156,82.649L190.676,81.887L193.415,87.352C192.905,87.601 192.398,87.854 191.894,88.112ZM204.412,82.792L202.458,76.982L204.069,76.44L206.024,82.253C205.484,82.428 204.947,82.608 204.412,82.792ZM215.766,79.647L214.525,73.617L216.19,73.274L217.432,79.309C216.875,79.417 216.319,79.53 215.766,79.647ZM226.031,78.04L225.439,71.882L227.131,71.719L227.723,77.882C227.158,77.93 226.594,77.982 226.031,78.04ZM235.31,77.536L235.31,71.327L237.01,71.327L237.01,77.539C236.673,77.536 236.335,77.534 235.996,77.534C235.767,77.534 235.539,77.535 235.31,77.536ZM292.608,95.744L296.313,90.667L297.686,91.669L293.98,96.748C293.526,96.409 293.068,96.074 292.608,95.744ZM317.219,121.387L322.501,117.991L323.42,119.421L318.141,122.816C317.838,122.337 317.531,121.861 317.219,121.387ZM328.249,144.153L334.187,142.251L334.706,143.87L328.77,145.771C328.601,145.229 328.427,144.69 328.249,144.153ZM332.496,163.338L338.681,162.674L338.863,164.364L332.678,165.028C332.623,164.463 332.562,163.9 332.496,163.338ZM333.042,179.395L339.232,179.761L339.131,181.458L332.946,181.093C332.983,180.528 333.015,179.962 333.042,179.395ZM331.448,192.895L337.489,194.114L337.152,195.78L331.117,194.562C331.232,194.008 331.343,193.452 331.448,192.895ZM328.548,204.314L334.369,206.247L333.833,207.86L328.015,205.928C328.198,205.392 328.375,204.854 328.548,204.314ZM324.849,214.029L330.415,216.566L329.709,218.113L324.146,215.576C324.384,215.063 324.619,214.547 324.849,214.029ZM320.671,222.339L325.959,225.392L325.109,226.865L319.823,223.812C320.11,223.324 320.393,222.833 320.671,222.339ZM276.3,263.109L278.709,268.553L277.155,269.241L274.747,263.802C275.267,263.575 275.784,263.344 276.3,263.109ZM241.67,271.686L241.952,277.57L240.254,277.651L239.972,271.769C240.539,271.746 241.105,271.719 241.67,271.686ZM216.337,269.856L215.099,275.56L213.437,275.2L214.675,269.498C215.227,269.622 215.781,269.741 216.337,269.856ZM197.52,263.921L195.165,269.241L193.611,268.553L195.966,263.233C196.481,263.467 197,263.696 197.52,263.921ZM183.297,256.31L180.093,261.174L178.673,260.239L181.879,255.374C182.349,255.69 182.822,256.002 183.297,256.31ZM172.392,248.113L168.534,252.488L167.259,251.364L171.118,246.989C171.539,247.367 171.964,247.742 172.392,248.113ZM163.947,239.845L159.586,243.72L158.457,242.45L162.817,238.575C163.19,239.001 163.567,239.425 163.947,239.845ZM157.373,231.752L152.627,235.136L151.64,233.752L156.385,230.368C156.71,230.832 157.039,231.293 157.373,231.752ZM152.253,223.953L147.211,226.865L146.361,225.392L151.402,222.482C151.681,222.975 151.965,223.465 152.253,223.953ZM273.704,78.773L272.237,82.57L271.304,82.21L271.849,80.799L272.771,78.413L273.704,78.773ZM312.632,105.748L309.618,108.485L308.946,107.745L311.959,105.008L312.632,105.748ZM329.801,131.985L326.103,133.687L325.685,132.778L329.383,131.077L329.801,131.985ZM337.005,154.311L333.018,155.131L332.817,154.151L336.804,153.332L337.005,154.311ZM300.314,254.92L297.76,251.75L298.538,251.123L299.487,252.3L301.093,254.292L300.314,254.92ZM257.489,275.144L256.626,271.166L257.603,270.954L258.466,274.932L257.489,275.144ZM227.554,272.934L227.179,276.987L226.183,276.895L226.558,272.842L227.554,272.934ZM205.478,268.424L204.194,272.287L203.245,271.971L204.529,268.108L205.478,268.424ZM137.144,190.485L134.616,190.879L134.462,189.891L138.484,189.264L138.638,190.252L137.144,190.485ZM141.931,144.885L138.054,143.644L138.359,142.691L142.236,143.933L141.931,144.885ZM154.007,116.999L151.919,115.52L152.496,114.704L155.819,117.056L155.241,117.872L154.007,116.999ZM169.181,99.879L167.481,97.966L168.229,97.302L170.932,100.345L170.185,101.009L169.181,99.879ZM335.442,173.024L335.422,172.024L338.98,171.952L339,172.952L335.442,173.024ZM334.526,188.069L334.657,187.078L338.185,187.545L338.054,188.537L334.526,188.069ZM331.936,200.722L332.195,199.756L335.632,200.678L335.373,201.643L331.936,200.722ZM328.34,211.433L328.707,210.502L332.018,211.808L331.651,212.739L328.34,211.433ZM324.142,220.554L324.601,219.665L327.762,221.299L327.303,222.187L324.142,220.554ZM187.822,261.261L188.698,261.743L186.981,264.86L186.105,264.378L187.822,261.261ZM175.25,252.945L176.043,253.554L173.874,256.375L173.081,255.766L175.25,252.945ZM165.587,244.375L166.294,245.083L163.778,247.599L163.071,246.892L165.587,244.375ZM158.11,235.906L158.732,236.689L155.945,238.903L155.323,238.12L158.11,235.906ZM152.31,227.71L152.85,228.551L149.854,230.472L149.314,229.631L152.31,227.71ZM185.216,89.299L184.361,89.817L182.519,86.771L183.375,86.254L185.216,89.299ZM198.704,82.57L197.78,82.952L196.421,79.663L197.345,79.281L198.704,82.57ZM210.957,78.487L209.991,78.745L209.07,75.308L210.036,75.049L210.957,78.487ZM222.03,76.245L221.041,76.393L220.517,72.873L221.506,72.725L222.03,76.245ZM232.029,75.321L231.03,75.367L230.864,71.812L231.863,71.766L232.029,75.321ZM244.346,74.569L245.342,74.656L245.211,76.162L244.215,76.075L244.346,74.569ZM252.223,75.529L253.209,75.694L252.96,77.186L251.973,77.02L252.223,75.529ZM259.382,76.96L260.353,77.196L259.996,78.665L259.024,78.429L259.382,76.96ZM265.901,78.746L266.854,79.047L266.399,80.489L265.445,80.187L265.901,78.746ZM277.286,83.055L278.196,83.469L277.57,84.845L276.66,84.43L277.286,83.055ZM282.266,85.461L283.151,85.925L282.45,87.264L281.564,86.8L282.266,85.461ZM286.832,87.977L287.692,88.486L286.922,89.787L286.062,89.278L286.832,87.977ZM291.025,90.572L291.86,91.124L291.026,92.385L290.192,91.834L291.025,90.572ZM298.43,95.908L299.211,96.533L298.267,97.713L297.486,97.088L298.43,95.908ZM301.7,98.612L302.454,99.27L301.46,100.409L300.707,99.752L301.7,98.612ZM304.715,101.324L305.442,102.011L304.403,103.109L303.677,102.422L304.715,101.324ZM307.497,104.032L308.197,104.746L307.116,105.804L306.417,105.089L307.497,104.032ZM312.436,109.408L313.082,110.171L311.927,111.147L311.282,110.383L312.436,109.408ZM314.626,112.064L315.245,112.849L314.058,113.785L313.439,113L314.626,112.064ZM316.649,114.693L317.242,115.499L316.024,116.395L315.432,115.589L316.649,114.693ZM318.518,117.292L319.084,118.116L317.839,118.973L317.272,118.149L318.518,117.292ZM321.836,122.39L322.352,123.247L321.056,124.027L320.541,123.17L321.836,122.39ZM323.306,124.886L323.797,125.757L322.479,126.499L321.989,125.628L323.306,124.886ZM324.661,127.344L325.127,128.229L323.79,128.934L323.324,128.049L324.661,127.344ZM325.909,129.765L326.351,130.662L324.995,131.33L324.553,130.433L325.909,129.765ZM328.114,134.489L328.509,135.408L327.12,136.005L326.725,135.086L328.114,134.489ZM329.084,136.793L329.455,137.721L328.052,138.283L327.68,137.355L329.084,136.793ZM329.972,139.058L330.321,139.995L328.904,140.523L328.555,139.585L329.972,139.058ZM330.783,141.284L331.11,142.229L329.681,142.723L329.355,141.778L330.783,141.284ZM332.197,145.621L332.481,146.58L331.031,147.009L330.747,146.05L332.197,145.621ZM332.808,147.733L333.07,148.698L331.611,149.095L331.349,148.13L332.808,147.733ZM333.359,149.808L333.601,150.778L332.134,151.143L331.892,150.173L333.359,149.808ZM333.855,151.845L334.076,152.821L332.602,153.155L332.38,152.18L333.855,151.845ZM334.692,155.813L334.873,156.796L333.387,157.071L333.205,156.088L334.692,155.813ZM335.039,157.744L335.201,158.73L333.71,158.976L333.547,157.989L335.039,157.744ZM335.342,159.64L335.486,160.63L333.99,160.847L333.846,159.857L335.342,159.64ZM335.604,161.503L335.729,162.495L334.229,162.684L334.104,161.692L335.604,161.503ZM318.634,231.596L318.061,232.416L316.822,231.549L317.395,230.73L318.634,231.596ZM313.864,237.938L313.228,238.71L312.061,237.748L312.697,236.976L313.864,237.938ZM309.045,243.422L308.355,244.146L307.262,243.102L307.952,242.378L309.045,243.422ZM304.239,248.175L303.502,248.85L302.481,247.735L303.219,247.06L304.239,248.175ZM294.815,255.881L294.001,256.462L293.123,255.231L293.937,254.651L294.815,255.881ZM290.242,258.99L289.397,259.525L288.588,258.248L289.433,257.713L290.242,258.99ZM285.78,261.687L284.908,262.177L284.167,260.86L285.038,260.369L285.78,261.687ZM281.435,264.021L280.54,264.467L279.865,263.115L280.759,262.668L281.435,264.021ZM273.112,267.766L272.18,268.13L271.63,266.721L272.562,266.358L273.112,267.766ZM269.135,269.245L268.189,269.57L267.699,268.139L268.645,267.815L269.135,269.245ZM265.279,270.501L264.321,270.787L263.889,269.338L264.847,269.052L265.279,270.501ZM261.543,271.556L260.574,271.804L260.199,270.34L261.168,270.092L261.543,271.556ZM254.418,273.145L253.434,273.323L253.166,271.835L254.15,271.658L254.418,273.145ZM251.022,273.714L250.033,273.857L249.816,272.361L250.806,272.218L251.022,273.714ZM247.734,274.151L246.74,274.262L246.573,272.759L247.567,272.649L247.734,274.151ZM244.549,274.47L243.552,274.548L243.433,273.041L244.43,272.963L244.549,274.47ZM238.474,274.795L237.474,274.813L237.447,273.301L238.447,273.283L238.474,274.795ZM235.578,274.82L234.578,274.809L234.595,273.297L235.595,273.308L235.578,274.82ZM232.772,274.764L231.772,274.725L231.831,273.215L232.83,273.253L232.772,274.764ZM230.052,274.635L229.054,274.569L229.153,273.061L230.151,273.127L230.052,274.635ZM224.858,274.182L223.864,274.065L224.042,272.563L225.035,272.681L224.858,274.182ZM222.378,273.87L221.388,273.727L221.603,272.231L222.593,272.373L222.378,273.87ZM219.972,273.506L218.986,273.34L219.238,271.849L220.224,272.016L219.972,273.506ZM217.638,273.096L216.657,272.907L216.943,271.422L217.925,271.612L217.638,273.096ZM213.175,272.152L212.203,271.918L212.557,270.448L213.529,270.682L213.175,272.152ZM211.041,271.625L210.074,271.37L210.46,269.908L211.427,270.163L211.041,271.625ZM208.969,271.065L208.008,270.789L208.425,269.336L209.386,269.612L208.969,271.065ZM206.957,270.475L206.001,270.179L206.449,268.735L207.404,269.031L206.957,270.475ZM203.102,269.216L202.16,268.882L202.665,267.457L203.607,267.792L203.102,269.216ZM201.256,268.552L200.32,268.199L200.854,266.784L201.789,267.137L201.256,268.552ZM199.462,267.866L198.533,267.496L199.094,266.091L200.022,266.462L199.462,267.866ZM197.718,267.161L196.796,266.774L197.383,265.38L198.305,265.768L197.718,267.161ZM145.5,217.418L145.077,216.512L146.447,215.873L146.87,216.779L145.5,217.418ZM142.393,210.116L142.043,209.18L143.459,208.65L143.809,209.587L142.393,210.116ZM140.053,203.201L139.772,202.242L141.223,201.817L141.504,202.777L140.053,203.201ZM138.34,196.663L138.124,195.687L139.6,195.36L139.816,196.337L138.34,196.663ZM136.379,184.648L136.283,183.653L137.787,183.508L137.883,184.503L136.379,184.648ZM135.973,179.133L135.932,178.134L137.442,178.072L137.483,179.071L135.973,179.133ZM135.869,173.92L135.88,172.921L137.391,172.937L137.38,173.937L135.869,173.92ZM136.02,168.991L136.08,167.993L137.589,168.084L137.529,169.082L136.02,168.991ZM136.938,159.91L137.088,158.922L138.583,159.15L138.432,160.138L136.938,159.91ZM137.645,155.726L137.837,154.745L139.321,155.036L139.128,156.017L137.645,155.726ZM138.485,151.759L138.717,150.787L140.188,151.137L139.956,152.11L138.485,151.759ZM139.44,147.996L139.709,147.033L141.165,147.44L140.896,148.403L139.44,147.996ZM141.626,141.031L141.965,140.09L143.387,140.602L143.048,141.543L141.626,141.031ZM142.831,137.806L143.202,136.877L144.606,137.438L144.235,138.367L142.831,137.806ZM144.097,134.74L144.498,133.824L145.883,134.43L145.482,135.346L144.097,134.74ZM145.414,131.822L145.844,130.919L147.208,131.57L146.778,132.472L145.414,131.822ZM148.169,126.399L148.654,125.524L149.976,126.256L149.492,127.131L148.169,126.399ZM149.596,123.878L150.105,123.018L151.406,123.788L150.897,124.648L149.596,123.878ZM151.047,121.476L151.58,120.63L152.859,121.436L152.326,122.282L151.047,121.476ZM152.519,119.184L153.075,118.353L154.332,119.194L153.776,120.025L152.519,119.184ZM155.508,114.913L156.106,114.111L157.318,115.016L156.719,115.817L155.508,114.913ZM157.019,112.921L157.637,112.135L158.825,113.07L158.207,113.856L157.019,112.921ZM158.536,111.02L159.173,110.249L160.339,111.212L159.701,111.983L158.536,111.02ZM160.058,109.204L160.713,108.448L161.855,109.439L161.2,110.194L160.058,109.204ZM163.107,105.811L163.796,105.086L164.892,106.127L164.203,106.852L163.107,105.811ZM164.631,104.226L165.336,103.517L166.408,104.582L165.704,105.291L164.631,104.226ZM166.152,102.711L166.872,102.017L167.921,103.105L167.202,103.799L166.152,102.711ZM167.669,101.263L168.403,100.584L169.43,101.694L168.696,102.373L167.669,101.263ZM170.686,98.555L171.447,97.906L172.428,99.056L171.668,99.705L170.686,98.555ZM172.185,97.289L172.958,96.655L173.917,97.824L173.143,98.458L172.185,97.289ZM173.676,96.078L174.461,95.459L175.397,96.646L174.612,97.265L173.676,96.078ZM175.158,94.92L175.955,94.315L176.868,95.52L176.071,96.124L175.158,94.92ZM297.946,85.135L299.256,83.34L299.705,83.667L300.033,83.219L302.276,84.856L301.949,85.305L302.398,85.633L302.07,86.081L302.519,86.409L302.191,86.858L302.64,87.185L303.623,85.839L304.52,86.494L302.555,89.186L301.209,88.204L301.536,87.755L301.088,87.428L301.415,86.979L300.966,86.651L301.294,86.203L300.845,85.875L301.173,85.426L299.826,84.444L299.171,85.341L299.62,85.669L298.965,86.566L298.068,85.911L298.395,85.462L297.946,85.135ZM326.018,113.42L327.887,112.218L328.188,112.685L328.655,112.385L329.556,113.786L329.089,114.087L329.39,114.554L329.857,114.254L331.359,116.59L330.892,116.89L331.193,117.358L329.324,118.56L329.023,118.093L328.556,118.393L327.955,117.458L328.889,116.857L329.19,117.325L330.124,116.724L329.223,115.322L328.288,115.923L327.687,114.988L328.622,114.387L328.021,113.453L327.086,114.054L327.387,114.521L326.452,115.122L325.851,114.188L326.318,113.887L326.018,113.42ZM338.238,138.915L339.297,138.576L340.144,141.222L341.202,140.883L340.355,138.238L341.413,137.899L343.276,143.719L342.218,144.058L341.541,141.941L339.953,142.45L339.784,141.92L339.255,142.09L338.238,138.915ZM343.322,160.223L346.636,159.867L346.755,160.972L344.545,161.209L344.664,162.314L346.321,162.136L346.38,162.689L346.932,162.629L347.229,165.391L346.676,165.45L346.736,166.003L343.974,166.299L343.855,165.194L346.065,164.957L345.887,163.3L343.677,163.537L343.322,160.223ZM344.768,178.142L346.986,178.273L346.953,178.827L347.508,178.86L347.442,179.969L346.333,179.904L346.366,179.349L345.257,179.284L345.191,180.393L346.855,180.491L346.822,181.046L347.377,181.079L347.213,183.852L346.659,183.819L346.626,184.373L344.407,184.242L344.44,183.688L343.886,183.655L344.18,178.664L344.735,178.697L344.768,178.142ZM345.126,181.502L345.028,183.166L346.137,183.231L346.235,181.568L345.126,181.502ZM342.652,193.175L345.92,193.834L345.37,196.557L344.825,196.447L344.606,197.537L344.061,197.427L343.621,199.605L342.532,199.385L343.082,196.662L343.626,196.772L343.846,195.683L344.391,195.793L344.611,194.704L342.432,194.264L342.652,193.175ZM340.136,206.115L342.245,206.816L342.069,207.343L342.597,207.518L342.071,209.1L341.544,208.925L341.369,209.452L341.896,209.627L341.021,212.263L340.494,212.088L340.319,212.615L338.21,211.915L338.385,211.388L337.857,211.213L338.733,208.576L339.26,208.751L339.435,208.224L338.908,208.049L339.433,206.467L339.96,206.642L340.136,206.115ZM340.313,207.345L339.962,208.399L341.017,208.749L341.367,207.695L340.313,207.345ZM339.612,209.454L339.087,211.035L340.141,211.386L340.667,209.804L339.612,209.454ZM336.162,217.052L338.184,217.974L337.953,218.479L338.459,218.71L336.385,223.259L335.879,223.029L335.649,223.534L333.627,222.613L333.857,222.107L333.352,221.877L333.813,220.866L334.824,221.327L334.593,221.832L335.604,222.293L336.065,221.282L334.549,220.591L334.779,220.085L334.274,219.855L335.426,217.327L335.931,217.558L336.162,217.052ZM336.206,218.294L335.515,219.81L336.526,220.271L337.217,218.754L336.206,218.294ZM330.43,225.731L331.393,226.287L328.893,230.617L329.855,231.172L329.299,232.134L326.413,230.468L326.968,229.506L327.93,230.061L329.597,227.174L328.635,226.619L329.19,225.657L330.153,226.212L330.43,225.731ZM333.318,227.398L335.243,228.509L334.965,228.99L335.446,229.268L332.946,233.598L332.465,233.321L332.187,233.802L330.263,232.691L330.54,232.209L330.059,231.932L332.559,227.602L333.04,227.879L333.318,227.398ZM333.244,228.638L331.299,232.006L332.261,232.562L334.206,229.194L333.244,228.638ZM281.896,270.954L282.796,272.986L282.288,273.211L282.512,273.719L279.972,274.843L279.748,274.335L279.24,274.56L279.015,274.052L278.507,274.277L278.282,273.769L277.774,273.994L278.448,275.518L277.432,275.968L276.083,272.92L277.607,272.245L277.832,272.753L278.34,272.528L278.565,273.036L279.073,272.811L279.298,273.319L279.806,273.095L280.031,273.603L281.555,272.928L281.105,271.912L280.597,272.137L280.147,271.121L281.163,270.671L281.388,271.179L281.896,270.954ZM283.471,274.511L284.37,276.543L283.862,276.768L284.087,277.276L279.515,279.3L279.29,278.792L278.782,279.017L277.883,276.985L278.391,276.76L278.166,276.252L282.738,274.228L282.963,274.736L283.471,274.511ZM282.68,275.469L279.123,277.043L279.573,278.059L283.129,276.485L282.68,275.469ZM244.059,280.958L244.166,283.178L243.611,283.205L243.637,283.76L241.972,283.839L241.946,283.284L241.391,283.311L241.418,283.866L238.643,283.999L238.616,283.444L238.061,283.471L237.955,281.251L238.51,281.224L238.483,280.669L239.593,280.616L239.646,281.726L239.091,281.753L239.145,282.863L240.809,282.783L240.756,281.673L241.866,281.62L241.919,282.73L243.029,282.676L242.976,281.566L242.421,281.593L242.368,280.483L243.478,280.43L243.504,280.985L244.059,280.958ZM244.245,284.844L244.352,287.064L243.797,287.09L243.824,287.645L238.829,287.885L238.803,287.33L238.248,287.356L238.141,285.137L238.696,285.11L238.67,284.555L243.664,284.316L243.69,284.87L244.245,284.844ZM243.162,285.452L239.278,285.638L239.331,286.748L243.215,286.562L243.162,285.452ZM216.375,278.836L216.139,279.922L213.425,279.332L213.189,280.418L215.904,281.008L215.668,282.093L209.696,280.797L209.932,279.711L212.103,280.183L212.457,278.554L213,278.672L213.118,278.129L216.375,278.836ZM215.432,283.18L214.961,285.352L214.418,285.234L214.3,285.777L209.414,284.716L209.531,284.173L208.989,284.056L209.46,281.884L210.003,282.002L210.121,281.459L215.007,282.519L214.889,283.062L215.432,283.18ZM214.228,283.487L210.428,282.663L210.192,283.748L213.993,284.573L214.228,283.487ZM195.755,272.706L194.406,275.755L193.39,275.305L194.289,273.273L193.273,272.823L192.599,274.347L192.091,274.122L191.866,274.63L189.326,273.506L189.551,272.998L189.043,272.773L190.167,270.233L191.183,270.683L190.283,272.715L191.808,273.389L192.707,271.357L195.755,272.706ZM193.956,276.772L193.056,278.804L192.548,278.579L192.323,279.087L187.751,277.063L187.976,276.555L187.468,276.33L188.368,274.298L188.876,274.523L189.1,274.015L193.673,276.039L193.448,276.547L193.956,276.772ZM192.715,276.83L189.159,275.256L188.709,276.272L192.265,277.846L192.715,276.83ZM179.797,265.154L178.574,267.009L178.11,266.704L177.805,267.167L176.877,266.556L177.488,265.628L177.952,265.934L178.563,265.006L177.635,264.395L176.718,265.787L176.254,265.481L175.949,265.945L173.629,264.417L173.935,263.953L173.471,263.647L174.694,261.791L175.157,262.097L175.463,261.633L179.638,264.384L179.333,264.848L179.797,265.154ZM176.708,263.784L175.316,262.867L174.704,263.794L176.096,264.711L176.708,263.784ZM177.657,268.402L176.434,270.258L175.97,269.952L175.664,270.416L171.489,267.665L171.795,267.201L171.331,266.895L172.553,265.04L173.017,265.345L173.323,264.882L177.498,267.632L177.193,268.096L177.657,268.402ZM176.423,268.255L173.176,266.115L172.564,267.043L175.812,269.182L176.423,268.255ZM168.052,255.97L165.847,258.47L163.764,256.633L164.131,256.216L163.298,255.481L163.666,255.065L161.999,253.595L162.734,252.761L164.817,254.599L164.45,255.016L165.283,255.751L164.915,256.167L165.749,256.902L167.219,255.236L168.052,255.97ZM165.111,259.305L163.642,260.971L163.225,260.604L162.857,261.02L159.107,257.713L159.475,257.296L159.058,256.929L160.528,255.262L160.945,255.63L161.312,255.213L165.062,258.52L164.695,258.937L165.111,259.305ZM163.911,258.986L160.994,256.414L160.259,257.247L163.176,259.82L163.911,258.986ZM158.271,247.488L156.61,248.964L156.241,248.549L155.826,248.918L154.718,247.672L155.134,247.303L154.765,246.888L154.349,247.257L152.504,245.18L152.919,244.811L152.55,244.396L154.211,242.92L154.58,243.335L154.996,242.966L156.841,245.042L156.426,245.411L156.795,245.827L157.21,245.458L158.317,246.703L157.902,247.072L158.271,247.488ZM157.118,247.026L156.379,246.196L155.549,246.934L156.287,247.764L157.118,247.026ZM155.641,245.365L154.534,244.119L153.704,244.857L154.811,246.103L155.641,245.365ZM155.363,250.072L153.702,251.548L153.333,251.133L152.918,251.502L149.596,247.765L150.012,247.395L149.643,246.98L151.304,245.504L151.673,245.919L152.088,245.55L155.41,249.287L154.994,249.657L155.363,250.072ZM154.21,249.61L151.627,246.704L150.796,247.442L153.379,250.348L154.21,249.61ZM150.916,238.741L149.107,240.031L148.784,239.579L148.332,239.901L145.429,235.83L145.881,235.508L145.559,235.055L147.368,233.765L147.691,234.217L148.143,233.895L148.788,234.799L147.883,235.445L147.561,234.992L146.656,235.637L147.301,236.542L148.658,235.574L148.981,236.027L149.433,235.704L151.046,237.966L150.594,238.288L150.916,238.741ZM149.819,238.159L148.851,236.802L147.946,237.447L148.914,238.804L149.819,238.159ZM147.749,240.999L145.939,242.289L145.617,241.837L145.165,242.16L142.262,238.088L142.714,237.766L142.391,237.314L144.201,236.023L144.523,236.476L144.976,236.153L147.879,240.224L147.426,240.547L147.749,240.999ZM146.651,240.417L144.394,237.251L143.489,237.896L145.747,241.062L146.651,240.417ZM146.366,229.594L145.404,230.15L142.904,225.82L141.942,226.375L141.386,225.413L144.273,223.746L144.829,224.709L143.866,225.264L145.533,228.151L146.495,227.595L147.051,228.558L146.089,229.113L146.366,229.594ZM143.479,231.262L141.554,232.373L141.276,231.892L140.795,232.169L138.295,227.839L138.776,227.561L138.499,227.08L140.423,225.969L140.701,226.45L141.182,226.173L143.682,230.503L143.201,230.781L143.479,231.262ZM142.442,230.577L140.498,227.209L139.535,227.765L141.48,231.133L142.442,230.577ZM140.11,233.207L138.185,234.318L137.908,233.837L137.426,234.114L134.926,229.784L135.408,229.506L135.13,229.025L137.054,227.914L137.332,228.395L137.813,228.118L140.313,232.448L139.832,232.726L140.11,233.207ZM139.073,232.522L137.129,229.154L136.166,229.71L138.111,233.078L139.073,232.522ZM131.719,166.131L129.509,165.894L129.568,165.342L129.016,165.282L129.312,162.52L129.865,162.58L129.924,162.027L130.476,162.087L130.536,161.534L131.088,161.593L131.147,161.041L129.49,160.863L129.609,159.758L132.923,160.114L132.745,161.771L132.193,161.712L132.133,162.264L131.581,162.205L131.522,162.757L130.969,162.698L130.91,163.251L130.358,163.191L130.18,164.848L131.285,164.967L131.344,164.415L132.449,164.533L132.33,165.638L131.778,165.579L131.719,166.131ZM127.851,165.716L125.641,165.479L125.701,164.927L125.148,164.867L125.682,159.896L126.234,159.955L126.293,159.403L128.503,159.64L128.443,160.192L128.996,160.252L128.462,165.223L127.91,165.164L127.851,165.716ZM127.417,164.552L127.832,160.685L126.727,160.567L126.312,164.434L127.417,164.552ZM123.983,165.301L121.773,165.064L121.833,164.512L121.28,164.452L121.814,159.481L122.366,159.54L122.425,158.988L124.635,159.225L124.576,159.777L125.128,159.837L124.595,164.808L124.042,164.749L123.983,165.301ZM123.549,164.137L123.964,160.27L122.859,160.152L122.444,164.019L123.549,164.137ZM141.768,129.044L139.793,128.027L140.047,127.533L139.553,127.279L140.317,125.797L140.811,126.051L141.065,125.557L140.571,125.303L141.843,122.834L142.337,123.088L142.591,122.594L144.567,123.612L144.313,124.106L144.806,124.36L144.298,125.348L143.31,124.839L143.564,124.345L142.577,123.836L141.813,125.318L142.801,125.827L142.292,126.815L141.304,126.306L140.796,127.293L141.783,127.802L142.038,127.308L143.026,127.817L142.517,128.805L142.023,128.551L141.768,129.044ZM138.31,127.263L136.335,126.245L136.589,125.752L136.095,125.497L138.385,121.052L138.879,121.307L139.133,120.813L141.109,121.83L140.854,122.324L141.348,122.579L139.059,127.024L138.565,126.769L138.31,127.263ZM138.325,126.021L140.106,122.564L139.118,122.055L137.338,125.512L138.325,126.021ZM134.852,125.482L132.877,124.464L133.131,123.97L132.637,123.716L134.927,119.271L135.421,119.525L135.675,119.031L137.651,120.049L137.396,120.543L137.89,120.797L135.6,125.242L135.107,124.988L134.852,125.482ZM134.867,124.239L136.648,120.782L135.66,120.274L133.879,123.731L134.867,124.239ZM157.159,106.548L156.337,105.801L158.204,103.744L157.382,102.997L155.514,105.054L154.692,104.307L158.8,99.783L159.623,100.53L158.129,102.175L159.363,103.295L158.989,103.707L159.4,104.08L157.159,106.548ZM153.868,103.559L152.223,102.065L152.597,101.653L152.186,101.28L155.547,97.579L155.959,97.952L156.332,97.541L157.977,99.035L157.604,99.446L158.015,99.82L154.653,103.521L154.242,103.148L153.868,103.559ZM154.204,102.363L156.819,99.484L155.996,98.737L153.382,101.616L154.204,102.363ZM150.989,100.943L149.344,99.449L149.717,99.038L149.306,98.665L152.668,94.963L153.079,95.337L153.453,94.926L155.098,96.42L154.724,96.831L155.135,97.204L151.774,100.906L151.362,100.532L150.989,100.943ZM151.325,99.747L153.939,96.869L153.117,96.122L150.502,99L151.325,99.747ZM172.484,92.018L170.519,89.326L171.417,88.671L172.727,90.466L173.624,89.811L172.642,88.465L173.09,88.137L172.763,87.688L175.007,86.051L175.334,86.499L175.783,86.172L177.42,88.416L176.523,89.071L175.213,87.276L173.867,88.258L175.177,90.053L172.484,92.018ZM169.863,88.427L168.553,86.633L169.002,86.305L168.675,85.856L172.713,82.909L173.041,83.357L173.49,83.03L174.8,84.825L174.351,85.152L174.678,85.601L170.64,88.549L170.312,88.1L169.863,88.427ZM170.433,87.324L173.575,85.031L172.92,84.134L169.778,86.426L170.433,87.324ZM167.57,85.285L166.26,83.49L166.709,83.163L166.381,82.714L170.42,79.766L170.748,80.215L171.196,79.888L172.506,81.683L172.058,82.01L172.385,82.459L168.346,85.407L168.019,84.958L167.57,85.285ZM168.14,84.182L171.281,81.889L170.626,80.991L167.485,83.284L168.14,84.182ZM186.729,82.142L185.734,80.156L186.23,79.907L185.981,79.41L186.975,78.912L187.473,79.905L186.976,80.154L187.474,81.148L188.467,80.65L187.72,79.16L188.217,78.911L187.968,78.414L190.451,77.17L190.7,77.666L191.197,77.417L192.193,79.404L191.696,79.653L191.945,80.149L187.475,82.39L187.226,81.893L186.729,82.142ZM189.46,80.152L190.95,79.405L190.452,78.412L188.962,79.159L189.46,80.152ZM184.986,78.665L183.99,76.678L184.487,76.429L184.238,75.932L188.708,73.692L188.957,74.189L189.454,73.94L190.449,75.926L189.953,76.175L190.202,76.672L185.732,78.912L185.483,78.416L184.986,78.665ZM185.731,77.67L189.207,75.928L188.709,74.934L185.233,76.677L185.731,77.67ZM183.243,75.187L182.247,73.2L182.744,72.951L182.495,72.455L186.965,70.214L187.214,70.711L187.711,70.462L188.706,72.449L188.21,72.698L188.459,73.194L183.989,75.435L183.74,74.938L183.243,75.187ZM183.988,74.193L187.464,72.45L186.966,71.457L183.49,73.199L183.988,74.193ZM200.303,76.667L199.24,73.508L201.873,72.622L202.05,73.149L203.103,72.795L203.28,73.321L205.387,72.613L205.741,73.666L203.108,74.552L202.931,74.025L201.878,74.379L201.701,73.853L200.648,74.207L201.356,76.313L200.303,76.667ZM198.886,72.454L198.177,70.347L198.704,70.17L198.527,69.644L203.266,68.05L203.443,68.576L203.97,68.399L204.678,70.506L204.151,70.683L204.329,71.209L199.589,72.803L199.412,72.277L198.886,72.454ZM199.762,71.573L203.448,70.333L203.094,69.28L199.408,70.52L199.762,71.573ZM197.646,68.767L196.937,66.66L197.464,66.483L197.287,65.957L202.026,64.363L202.203,64.889L202.73,64.712L203.438,66.819L202.912,66.996L203.089,67.522L198.349,69.116L198.172,68.59L197.646,68.767ZM198.522,67.886L202.208,66.646L201.854,65.593L198.168,66.833L198.522,67.886ZM212.312,72.5L211.864,70.323L212.408,70.211L212.296,69.667L213.928,69.331L214.04,69.875L214.585,69.763L214.473,69.219L217.193,68.659L217.305,69.203L217.849,69.091L218.297,71.268L217.753,71.38L217.865,71.924L215.145,72.484L215.033,71.94L214.488,72.052L214.6,72.596L212.968,72.932L212.856,72.388L212.312,72.5ZM213.288,71.732L214.376,71.508L214.152,70.419L213.064,70.643L213.288,71.732ZM215.465,71.284L217.097,70.948L216.873,69.859L215.241,70.195L215.465,71.284ZM211.528,68.69L211.08,66.513L211.624,66.401L211.512,65.857L216.409,64.849L216.521,65.393L217.065,65.281L217.513,67.458L216.969,67.57L217.081,68.114L212.184,69.122L212.072,68.578L211.528,68.69ZM212.504,67.921L216.313,67.138L216.089,66.049L212.28,66.833L212.504,67.921ZM210.744,64.879L210.296,62.703L210.84,62.591L210.728,62.047L215.625,61.039L215.737,61.583L216.281,61.471L216.729,63.648L216.185,63.76L216.297,64.304L211.4,65.312L211.288,64.767L210.744,64.879ZM211.72,64.111L215.529,63.327L215.305,62.239L211.496,63.023L211.72,64.111ZM223.358,70.535L223.146,68.323L223.699,68.269L223.645,67.716L228.623,67.238L228.676,67.791L229.229,67.738L229.441,69.95L228.888,70.003L228.941,70.556L227.835,70.662L227.729,69.556L228.282,69.503L228.176,68.397L227.07,68.503L227.229,70.162L226.676,70.216L226.729,70.769L223.964,71.034L223.911,70.481L223.358,70.535ZM224.411,69.875L226.07,69.716L225.964,68.61L224.305,68.769L224.411,69.875ZM222.986,66.662L222.773,64.45L223.326,64.397L223.273,63.844L228.25,63.366L228.303,63.919L228.856,63.866L229.069,66.078L228.516,66.131L228.569,66.684L223.592,67.162L223.539,66.609L222.986,66.662ZM224.039,66.003L227.91,65.631L227.804,64.525L223.933,64.897L224.039,66.003ZM222.614,62.79L222.401,60.578L222.954,60.525L222.901,59.972L227.878,59.494L227.931,60.047L228.484,59.994L228.697,62.206L228.144,62.259L228.197,62.812L223.22,63.29L223.167,62.737L222.614,62.79ZM223.667,62.131L227.538,61.759L227.431,60.653L223.56,61.025L223.667,62.131ZM271.915,74.27L272.316,73.234L276.979,75.036L277.38,74L278.416,74.4L277.215,77.51L276.178,77.109L276.579,76.073L273.47,74.871L273.069,75.907L272.033,75.507L272.433,74.47L271.915,74.27ZM277.581,73.48L277.982,72.443L279.018,72.844L278.618,73.88L277.581,73.48ZM273.519,70.12L274.721,67.011L275.757,67.412L274.956,69.485L275.992,69.885L276.593,68.331L277.111,68.531L277.312,68.013L279.903,69.014L279.702,69.532L280.221,69.733L279.219,72.323L278.183,71.923L278.984,69.85L277.429,69.249L276.628,71.322L273.519,70.12ZM312.639,101.295L314.284,99.8L314.657,100.212L315.069,99.838L316.936,101.894L316.525,102.268L316.898,102.679L316.487,103.053L316.861,103.464L316.449,103.838L316.823,104.249L318.057,103.128L318.804,103.951L316.336,106.192L315.216,104.958L315.627,104.585L315.253,104.173L315.665,103.8L315.291,103.389L315.702,103.015L315.329,102.604L315.74,102.23L314.62,100.997L313.797,101.744L314.171,102.155L313.348,102.902L312.601,102.079L313.012,101.706L312.639,101.295ZM318.47,102.753L319.292,102.006L320.039,102.829L319.217,103.576L318.47,102.753ZM316.343,97.93L318.811,95.689L319.558,96.511L317.913,98.005L318.66,98.828L319.894,97.707L320.267,98.119L320.678,97.745L322.546,99.801L322.135,100.175L322.508,100.586L320.452,102.454L319.705,101.631L321.35,100.137L320.229,98.903L318.584,100.397L316.343,97.93ZM305.633,256.273L306.33,257.138L302.437,260.275L303.134,261.14L302.269,261.838L300.178,259.242L301.043,258.545L301.74,259.41L304.335,257.319L303.638,256.453L304.503,255.756L305.2,256.621L305.633,256.273ZM307.377,258.436L309.469,261.031L308.603,261.729L307.209,259.999L306.344,260.696L307.39,261.993L306.957,262.342L307.306,262.775L305.143,264.518L304.794,264.085L304.362,264.434L302.619,262.271L303.484,261.574L304.878,263.304L306.176,262.258L304.781,260.528L307.377,258.436ZM261.52,278.194L261.991,280.366L261.448,280.484L261.566,281.027L258.852,281.616L258.734,281.073L258.191,281.191L258.073,280.648L257.53,280.766L257.412,280.223L256.869,280.341L257.223,281.969L256.137,282.205L255.43,278.948L257.059,278.594L257.177,279.137L257.72,279.019L257.837,279.562L258.38,279.444L258.498,279.987L259.041,279.869L259.159,280.412L260.788,280.059L260.552,278.973L260.009,279.091L259.773,278.005L260.859,277.769L260.977,278.312L261.52,278.194ZM262.227,281.453L262.934,284.71L261.849,284.946L261.377,282.774L260.291,283.01L260.645,284.639L260.102,284.757L260.22,285.299L257.505,285.889L257.387,285.346L256.845,285.464L256.255,282.749L257.341,282.513L257.812,284.685L259.441,284.331L258.97,282.16L262.227,281.453ZM132.553,193.521L131.455,193.692L130.684,188.752L129.586,188.923L129.415,187.826L132.708,187.312L132.88,188.41L131.782,188.581L132.296,191.874L133.394,191.703L133.565,192.801L132.467,192.972L132.553,193.521ZM129.807,193.949L126.514,194.463L126.342,193.366L128.538,193.023L128.367,191.925L126.72,192.182L126.634,191.633L126.085,191.719L125.657,188.974L126.206,188.889L126.12,188.34L128.865,187.911L129.036,189.009L126.841,189.352L127.097,190.999L129.293,190.656L129.807,193.949ZM125.415,194.635L123.219,194.977L123.133,194.429L122.584,194.514L121.814,189.574L122.362,189.488L122.277,188.939L124.472,188.597L124.558,189.146L125.107,189.06L125.878,194L125.329,194.086L125.415,194.635ZM124.694,193.623L124.095,189.78L122.997,189.952L123.597,193.794L124.694,193.623ZM135.555,145.25L133.439,144.573L133.608,144.044L133.079,143.874L133.926,141.229L134.455,141.398L134.625,140.869L135.154,141.039L135.323,140.509L135.852,140.679L136.021,140.15L134.434,139.642L134.773,138.583L137.948,139.6L137.439,141.187L136.91,141.018L136.741,141.547L136.212,141.377L136.042,141.906L135.513,141.737L135.344,142.266L134.815,142.097L134.307,143.684L135.365,144.023L135.534,143.494L136.592,143.833L136.254,144.891L135.725,144.721L135.555,145.25ZM132.379,144.234L129.205,143.217L129.544,142.159L131.66,142.837L131.999,141.779L130.412,141.27L130.581,140.741L130.052,140.572L130.899,137.926L131.428,138.096L131.597,137.567L134.243,138.414L133.904,139.472L131.788,138.794L131.279,140.382L133.396,141.059L132.379,144.234ZM128.146,142.878L126.029,142.201L126.199,141.672L125.67,141.502L127.194,136.74L127.723,136.91L127.893,136.381L130.009,137.058L129.84,137.587L130.369,137.757L128.844,142.519L128.315,142.349L128.146,142.878ZM127.955,141.651L129.141,137.947L128.083,137.608L126.897,141.312L127.955,141.651ZM231.125,59.509C231.125,58.913 231.362,58.342 231.783,57.92C232.205,57.499 232.776,57.262 233.372,57.262L238.62,57.262C239.216,57.262 239.788,57.499 240.209,57.92C240.631,58.342 240.868,58.913 240.867,59.509L240.867,65.026C240.867,65.562 240.676,66.08 240.328,66.487L236.856,70.544C236.685,70.743 236.438,70.859 236.176,70.864C235.914,70.869 235.662,70.762 235.484,70.57L231.723,66.502C231.339,66.087 231.125,65.542 231.125,64.977L231.125,59.509ZM238.229,63.238L237.113,63.238L237.113,63.796L236.555,63.796L236.555,64.354L235.438,64.354L235.438,63.796L234.88,63.796L234.88,63.238L233.764,63.238L233.764,64.354L234.322,64.354L234.322,64.912L234.88,64.912L234.88,65.47L234.322,65.47L234.322,66.028L233.764,66.028L233.764,67.145L234.88,67.145L234.88,66.587L235.438,66.587L235.438,66.028L236.555,66.028L236.555,66.587L237.113,66.587L237.113,67.145L238.229,67.145L238.229,66.028L237.671,66.028L237.671,65.47L237.113,65.47L237.113,64.912L237.671,64.912L237.671,64.354L238.229,64.354L238.229,63.238ZM239.26,58.365L238.073,58.365L238.073,59.551L232.733,59.551L232.733,60.738L233.326,60.738L233.326,61.925L234.513,61.925L234.513,60.738L238.073,60.738L238.073,61.925L239.26,61.925L239.26,58.365Z" style="fill:white;"/>
</svg>
